<?xml version="1.0" encoding="UTF-8"?>
<svg width="752pt" height="752pt" version="1.1" viewBox="0 0 752 752" xmlns="http://www.w3.org/2000/svg">
 <g fill-rule="evenodd">
  <path d="m201.34 167.62c-18.516 0-33.715 15.258-33.715 33.785v122.85c0 18.527 15.195 33.785 33.715 33.785h122.48c18.516 0 33.715-15.258 33.715-33.785v-122.85c0-18.527-15.195-33.785-33.715-33.785zm0 18.941h122.48c8.1875 0 14.77 6.5859 14.77 14.844v122.85c0 8.2578-6.582 14.844-14.77 14.844h-122.48c-8.1875 0-14.77-6.5859-14.77-14.844v-122.85c0-8.2578 6.582-14.844 14.77-14.844z"/>
  <path d="m428.18 167.62c-18.488 0-33.711 15.238-33.711 33.785v122.85c0 18.547 15.227 33.785 33.711 33.785h122.54c18.488 0 33.668-15.258 33.668-33.785v-122.85c0-18.527-15.18-33.785-33.668-33.785zm0 18.941h122.54c8.1211 0 14.723 6.5859 14.723 14.844v122.85c0 8.2578-6.6016 14.844-14.723 14.844h-122.54c-8.1211 0-14.77-6.6094-14.77-14.844v-122.85c0-8.2344 6.6484-14.844 14.77-14.844z"/>
  <path d="m201.34 393.91c-18.539 0-33.715 15.289-33.715 33.785v122.9c0 18.496 15.172 33.785 33.715 33.785h122.48c18.539 0 33.715-15.289 33.715-33.785v-122.9c0-18.496-15.172-33.785-33.715-33.785zm0 18.941h122.48c8.1641 0 14.77 6.6523 14.77 14.844v122.9c0 8.1914-6.6055 14.844-14.77 14.844h-122.48c-8.1641 0-14.77-6.6523-14.77-14.844v-122.9c0-8.1914 6.6055-14.844 14.77-14.844z"/>
  <path d="m428.18 393.91c-18.512 0-33.711 15.266-33.711 33.785v122.9c0 18.52 15.203 33.785 33.711 33.785h122.54c18.512 0 33.668-15.289 33.668-33.785v-122.9c0-18.496-15.156-33.785-33.668-33.785zm0 18.941h122.54c8.0977 0 14.723 6.6523 14.723 14.844v122.9c0 8.1914-6.625 14.844-14.723 14.844h-122.54c-8.0977 0-14.77-6.6719-14.77-14.844v-122.9c0-8.168 6.6719-14.844 14.77-14.844z"/>
 </g>
</svg>
