<?xml version="1.0" encoding="UTF-8"?>
<svg width="752pt" height="752pt" version="1.1" viewBox="0 0 752 752" xmlns="http://www.w3.org/2000/svg">
 <g>
  <path d="m431.35 180.19c0 16.902-13.699 30.602-30.598 30.602s-30.598-13.699-30.598-30.602c0-16.898 13.699-30.598 30.598-30.598s30.598 13.699 30.598 30.598"/>
  <path d="m424.49 388.92h-47.492l6.9805 17.543h33.539z"/>
  <path d="m469.68 431.95c-1.168 2.9297-2.7695 5.5508-4.7109 7.875l0.9375 15.145h-130.31l0.94531-15.145c-1.9375-2.332-3.5508-4.9453-4.7188-7.875l-10.691-26.844-11.75 187.99c-0.14844 2.4102 0.70313 4.7812 2.3672 6.543 1.668 1.7617 3.9727 2.7695 6.3945 2.7695h165.23c2.4102 0 4.7266-1.0078 6.3945-2.7695s2.5156-4.1289 2.3672-6.543l-11.77-188.01zm-135.18 40.562h132.51l3.0352 48.508-138.57-0.003906zm-7.0234 112.36 2.8945-46.316h140.77l2.8945 46.316z"/>
  <path d="m490.7 323.65c-2.2617-2.7461-5.2812-4.5586-8.5664-5.5352l2.0508-31.863c0.25391-4.2461-1.2383-8.3945-4.1289-11.496l-37.508-39.984c-4.0273-4.2812-22.16-10.312-39.289-8.4805-12.637 1.332-20.496 3.0156-37.07 10.348l-37.578 16.188-57.828 7.0234c-8.4102 1.0273-14.41 8.6836-13.375 17.094 0.9375 7.7773 7.5703 13.496 15.207 13.496 0.62109 0 1.2539-0.035156 1.8867-0.12109l60.012-7.2969c1.4453-0.17578 2.8672-0.5625 4.2109-1.1328l22.348-9.6289v51.707l-33.441-6.3945c-6.3047-1.2031-12.742 1.1133-16.82 6.043-4.0781 4.9297-5.1484 11.715-2.7695 17.664l34.379 86.418c2.7461 6.8672 9.332 11.051 16.305 11.051 2.1562 0 4.3516-0.39453 6.4805-1.2539 8.9961-3.5781 13.383-13.77 9.8047-22.785l-22.547-56.68 29.188 5.6055c5.2344 0.99219 33 0.99219 38.219 0l29.168-5.6055-22.539 56.68c-3.5781 9.0078 0.80859 19.199 9.7969 22.785 2.1406 0.85938 4.332 1.2539 6.4883 1.2539 6.9727 0 13.566-4.1836 16.305-11.051l34.379-86.418c2.375-5.9102 1.3125-12.691-2.7656-17.629zm-59.348-53.031c0 6.043-4.9023 10.961-10.961 10.961-6.043 0-10.961-4.9219-10.961-10.961v-13.629h21.926zm19.777 51.34-10.691 2.0352v-46.594l12.672 13.516z"/>
 </g>
</svg>
